<?xml version="1.0" standalone="no"?>
<!DOCTYPE svg PUBLIC "-//W3C//DTD SVG 20010904//EN"
 "http://www.w3.org/TR/2001/REC-SVG-20010904/DTD/svg10.dtd">
<svg version="1.0" xmlns="http://www.w3.org/2000/svg"
 width="822.000000pt" height="714.000000pt" viewBox="0 0 822.000000 714.000000"
 preserveAspectRatio="xMidYMid meet">

<g transform="translate(0.000000,714.000000) scale(0.100000,-0.100000)"
fill="#000000" stroke="none">
<path d="M3660 5274 c-248 -36 -401 -93 -590 -220 -244 -163 -419 -397 -509
-676 -59 -187 -61 -212 -61 -990 l0 -708 708 0 c662 0 716 1 818 20 545 98
956 509 1054 1054 144 794 -480 1534 -1283 1525 -62 -1 -123 -3 -137 -5z m-16
-906 c39 -12 135 -94 150 -128 5 -13 7 -13 12 0 15 34 111 116 150 128 245 73
436 -154 327 -388 -38 -81 -102 -166 -195 -260 -75 -75 -212 -193 -260 -224
-27 -17 -29 -17 -60 3 -69 42 -246 200 -313 278 -125 146 -182 264 -172 361
18 176 185 282 361 230z"/>
<path d="M6808 2308 l-3 -113 -110 -5 -110 -5 0 -50 0 -50 107 -3 c126 -3 117
8 121 -142 l2 -95 50 0 50 0 3 118 3 117 110 0 110 0 -3 53 -3 52 -107 3 -107
3 -3 112 -3 112 -52 3 -52 3 -3 -113z"/>
<path d="M5221 1608 c0 -167 4 -325 8 -351 13 -77 34 -91 141 -95 l90 -4 0 61
c0 58 -1 61 -24 61 -13 0 -27 7 -30 16 -3 9 -6 150 -6 315 l0 299 -90 0 -90 0
1 -302z"/>
<path d="M3084 1866 c-3 -7 -4 -153 -2 -324 3 -297 4 -312 24 -339 24 -33 89
-50 147 -39 37 7 37 7 37 56 0 46 -2 50 -24 50 -13 0 -27 7 -30 16 -3 9 -6
146 -6 305 l0 289 -70 0 c-50 0 -72 -4 -76 -14z"/>
<path d="M3815 1867 c-3 -6 -4 -165 -3 -352 l3 -340 71 -3 72 -3 4 163 c3 144
6 168 26 205 37 71 118 80 159 16 15 -23 19 -54 21 -205 l4 -178 69 0 69 0 0
195 c0 216 -9 258 -61 296 -73 52 -197 46 -248 -12 -14 -16 -29 -29 -33 -29
-5 0 -8 59 -8 130 l0 130 -70 0 c-48 0 -72 -4 -75 -13z"/>
<path d="M4600 1515 l0 -345 85 0 85 0 0 119 0 118 109 6 c76 4 123 11 153 25
138 61 173 248 65 356 -59 59 -93 66 -311 66 l-186 0 0 -345z m329 200 c16 -8
31 -22 35 -30 12 -32 6 -83 -13 -106 -17 -22 -27 -24 -98 -24 l-78 0 -3 74
c-2 41 -1 80 2 88 7 18 119 17 155 -2z"/>
<path d="M1153 1832 l-23 -3 0 -330 0 -329 75 0 75 0 0 135 0 136 146 -3 145
-3 2 -130 2 -130 73 -3 72 -3 0 336 0 335 -62 0 c-35 0 -68 -4 -75 -8 -9 -5
-13 -50 -15 -142 l-3 -135 -140 0 -140 0 -3 137 -3 136 -52 4 c-28 1 -62 2
-74 0z"/>
<path d="M3440 1745 l0 -65 -40 0 -40 0 0 -44 c0 -44 0 -45 38 -48 l37 -3 5
-181 c5 -198 8 -206 67 -231 36 -14 150 -18 171 -4 8 5 12 23 10 47 -3 37 -5
39 -42 45 -21 3 -42 12 -47 20 -5 8 -8 79 -6 159 l2 145 53 3 53 3 -3 42 -3
42 -52 3 -52 3 -3 62 -3 62 -72 3 -73 3 0 -66z"/>
<path d="M6319 1706 c-99 -26 -144 -84 -137 -174 7 -77 45 -111 165 -148 48
-15 96 -34 106 -42 27 -23 18 -64 -15 -76 -35 -12 -93 13 -103 43 -6 19 -14
21 -92 21 l-85 0 6 -31 c10 -50 45 -90 105 -117 48 -22 70 -26 148 -26 77 0
99 4 140 25 62 32 93 78 93 136 0 90 -47 135 -182 177 -99 30 -128 55 -104 91
7 11 23 21 35 23 25 4 61 -23 61 -45 0 -10 20 -13 85 -13 95 0 98 4 69 65 -40
85 -170 125 -295 91z"/>
<path d="M5532 1484 c3 -208 4 -224 24 -251 50 -67 135 -94 226 -73 39 10 55
20 77 51 32 43 41 41 41 -8 l0 -33 88 0 87 0 -3 257 c-1 142 -4 263 -7 270 -2
7 -30 11 -82 10 l-78 -2 -5 -175 c-3 -98 -11 -187 -17 -201 -27 -61 -105 -79
-147 -34 -29 31 -36 84 -36 271 l0 141 -86 0 -85 0 3 -223z"/>
<path d="M2075 1693 c-66 -15 -115 -37 -142 -66 -122 -127 -104 -353 34 -434
88 -51 237 -41 311 22 34 30 80 101 70 110 -2 2 -31 5 -65 6 -59 2 -62 1 -96
-34 -28 -30 -41 -37 -73 -37 -48 0 -82 22 -100 66 -28 66 -33 64 166 64 l180
0 0 58 c0 111 -69 206 -172 237 -51 15 -75 17 -113 8z m93 -116 c20 -16 44
-75 37 -87 -4 -6 -49 -10 -101 -10 -92 0 -94 0 -94 24 0 28 34 74 64 87 25 10
73 4 94 -14z"/>
<path d="M2653 1690 c-87 -18 -151 -73 -160 -136 l-5 -39 54 1 c29 1 60 2 68
3 9 0 21 14 27 31 30 79 143 51 143 -36 l0 -31 -86 -6 c-62 -3 -97 -11 -131
-28 -68 -36 -88 -68 -88 -144 0 -54 4 -68 25 -90 14 -15 39 -34 57 -41 67 -29
186 -9 206 33 14 32 27 29 27 -7 l0 -30 71 0 71 0 -3 203 c-4 180 -6 206 -24
237 -37 63 -153 101 -252 80z m125 -333 c6 -72 -88 -127 -140 -80 -54 48 11
126 102 120 33 -2 35 -4 38 -40z"/>
<path d="M2340 754 c0 -40 -2 -45 -17 -39 -21 8 -21 8 -50 6 -43 -2 -67 -89
-41 -146 13 -28 33 -35 96 -32 l42 2 0 127 c0 107 -2 128 -15 128 -11 0 -15
-12 -15 -46z m-16 -60 c20 -8 23 -103 4 -122 -18 -18 -56 -14 -68 7 -14 27
-13 94 2 109 13 13 37 15 62 6z"/>
<path d="M3180 670 c0 -80 4 -130 10 -130 6 0 10 50 10 130 0 80 -4 130 -10
130 -6 0 -10 -50 -10 -130z"/>
<path d="M1599 788 c-13 -28 -1 -248 12 -248 5 0 9 41 9 91 0 50 4 88 9 85 5
-3 24 -44 42 -91 18 -47 39 -85 45 -85 6 0 26 38 44 85 18 47 37 88 42 91 4 3
8 -36 8 -85 0 -75 3 -91 15 -91 13 0 15 18 13 122 -3 105 -5 121 -20 124 -16
2 -40 -46 -88 -171 -6 -15 -13 -25 -16 -22 -3 3 -23 48 -43 99 -24 59 -43 94
-54 96 -9 2 -18 2 -18 0z"/>
<path d="M2500 776 c0 -9 7 -16 16 -16 9 0 14 5 12 12 -6 18 -28 21 -28 4z"/>
<path d="M3574 782 c-16 -10 -98 -231 -89 -240 8 -8 35 26 35 45 0 17 42 27
84 19 26 -5 37 -14 45 -36 9 -27 31 -42 31 -21 0 12 -80 225 -88 233 -4 4 -12
4 -18 0z m25 -83 c7 -23 15 -47 18 -55 4 -11 -5 -14 -37 -14 -32 0 -41 3 -37
14 3 8 11 32 18 55 7 23 15 41 19 41 4 0 12 -18 19 -41z"/>
<path d="M4837 783 c-12 -11 -8 -23 8 -23 8 0 15 7 15 15 0 16 -12 20 -23 8z"/>
<path d="M5440 776 c0 -9 7 -16 16 -16 9 0 14 5 12 12 -6 18 -28 21 -28 4z"/>
<path d="M5266 763 c-3 -3 -6 -15 -6 -25 0 -10 -7 -18 -15 -18 -8 0 -15 -4
-15 -10 0 -5 7 -10 15 -10 12 0 15 -14 15 -68 0 -70 10 -92 42 -92 22 0 24 16
3 24 -11 4 -15 22 -15 71 0 51 3 65 15 65 8 0 15 4 15 9 0 5 -7 11 -15 15 -8
3 -15 12 -15 20 0 17 -14 28 -24 19z"/>
<path d="M2694 715 c-36 -15 -44 -31 -44 -89 0 -29 7 -49 20 -64 37 -40 120
-22 120 25 0 14 -4 12 -23 -5 -46 -43 -92 -19 -92 48 0 21 7 45 14 54 19 22
58 20 73 -4 17 -26 30 -25 26 2 -5 32 -54 50 -94 33z"/>
<path d="M2960 723 c-25 -9 -50 -35 -44 -45 3 -5 14 -2 24 7 26 24 74 16 78
-12 3 -20 -1 -23 -30 -23 -46 0 -78 -24 -78 -59 0 -40 18 -51 83 -49 l57 2 0
67 c0 49 -5 72 -17 87 -20 23 -50 33 -73 25z m60 -118 c0 -45 -73 -60 -87 -18
-6 18 27 43 58 43 24 0 29 -4 29 -25z"/>
<path d="M3832 719 c-25 -10 -44 -42 -36 -63 3 -9 24 -21 45 -28 45 -13 64
-31 55 -53 -7 -20 -65 -20 -72 0 -6 16 -34 21 -34 7 0 -39 94 -56 123 -24 33
37 19 62 -49 86 -27 9 -39 19 -39 32 0 25 41 31 65 9 25 -23 47 -9 25 15 -19
22 -54 29 -83 19z"/>
<path d="M4080 717 c-27 -14 -38 -50 -21 -71 6 -7 29 -18 51 -25 34 -10 41
-16 38 -34 -4 -27 -49 -35 -68 -13 -13 17 -40 22 -40 8 0 -20 39 -42 73 -42
87 0 89 84 2 104 -35 9 -48 25 -33 43 15 19 55 16 67 -4 7 -13 13 -15 21 -7 7
7 5 15 -7 26 -27 24 -55 29 -83 15z"/>
<path d="M4355 722 c-51 -10 -78 -76 -55 -133 15 -35 37 -49 79 -49 44 0 71
33 71 88 0 24 -4 52 -10 62 -11 21 -56 38 -85 32z m59 -44 c32 -46 8 -118 -39
-118 -28 0 -55 34 -55 70 0 36 27 70 55 70 13 0 31 -10 39 -22z"/>
<path d="M5023 715 c-33 -14 -41 -29 -24 -39 5 -3 14 1 21 9 23 28 80 12 80
-22 0 -8 -12 -13 -31 -13 -63 0 -102 -44 -75 -85 14 -21 23 -24 74 -22 l57 1
-3 76 c-2 41 -9 80 -15 86 -21 20 -51 23 -84 9z m77 -103 c0 -24 -34 -55 -56
-50 -9 1 -22 10 -27 20 -16 24 8 48 49 48 26 0 34 -4 34 -18z"/>
<path d="M5931 718 c-13 -4 -32 -6 -42 -3 -18 6 -19 -1 -19 -85 0 -69 3 -91
13 -88 7 3 13 29 15 68 3 73 15 92 51 88 25 -3 26 -5 29 -80 2 -60 6 -78 17
-78 12 0 15 16 15 73 0 95 -24 126 -79 105z"/>
<path d="M1981 694 c-30 -38 -28 -98 4 -129 28 -29 85 -34 105 -10 16 19 5 34
-12 17 -18 -18 -53 -14 -73 8 -29 32 -14 46 49 44 54 -1 56 0 56 25 0 45 -26
71 -70 71 -30 0 -43 -6 -59 -26z m87 -6 c25 -25 13 -38 -33 -38 -49 0 -50 1
-35 31 12 21 50 25 68 7z"/>
<path d="M2500 631 c0 -75 3 -91 15 -91 13 0 15 14 13 87 -2 58 -7 88 -15 91
-10 3 -13 -19 -13 -87z"/>
<path d="M4590 700 c-30 -30 -28 -109 3 -138 31 -29 77 -29 106 2 12 13 18 27
13 30 -5 3 -17 -3 -27 -14 -37 -41 -95 -10 -95 50 0 35 26 70 52 70 12 0 32
-9 44 -21 28 -27 42 -7 14 21 -27 27 -83 27 -110 0z"/>
<path d="M4830 630 c0 -73 3 -90 15 -90 12 0 15 17 15 90 0 73 -3 90 -15 90
-12 0 -15 -17 -15 -90z"/>
<path d="M5440 630 c0 -73 3 -90 15 -90 12 0 15 17 15 90 0 73 -3 90 -15 90
-12 0 -15 -17 -15 -90z"/>
<path d="M5611 694 c-49 -62 -11 -154 63 -154 45 0 76 37 76 90 0 55 -31 90
-80 90 -30 0 -43 -6 -59 -26z m93 -10 c35 -34 12 -124 -31 -124 -44 0 -69 71
-43 121 13 23 53 25 74 3z"/>
</g>
</svg>
